<svg width="1280" height="720" xmlns="http://www.w3.org/2000/svg" xmlns:xlink="http://www.w3.org/1999/xlink" overflow="hidden"><g><rect x="0" y="0" width="1280" height="720" fill="#FFFFFF"/><rect x="513" y="292" width="183" height="184" stroke="#042433" stroke-width="2" stroke-miterlimit="8" fill="none"/><rect x="584" y="244" width="183" height="184" stroke="#042433" stroke-width="2" stroke-miterlimit="8" fill="none"/><path d="M0 0 70.9902 47.3044" stroke="#000000" stroke-width="2" stroke-miterlimit="8" fill="none" fill-rule="evenodd" transform="matrix(1 0 0 -1 513 291.304)"/><path d="M0 0 70.9902 47.3044" stroke="#000000" stroke-width="2" stroke-miterlimit="8" fill="none" fill-rule="evenodd" transform="matrix(1 0 0 -1 696 291.304)"/><path d="M0 0 70.9902 47.3044" stroke="#000000" stroke-width="2" stroke-miterlimit="8" fill="none" fill-rule="evenodd" transform="matrix(1 0 0 -1 696 475.304)"/><path d="M0 0 70.9902 47.3044" stroke="#000000" stroke-width="2" stroke-miterlimit="8" fill="none" fill-rule="evenodd" transform="matrix(1 0 0 -1 513 475.304)"/><path d="M0 0 70.9902 47.3044" stroke="#D1D1D1" stroke-width="2" stroke-linejoin="round" stroke-miterlimit="10" stroke-dasharray="8 6" fill="none" fill-rule="evenodd" transform="matrix(1 0 0 -1 513 385.304)"/><path d="M584 338 767.854 338" stroke="#D1D1D1" stroke-width="2" stroke-linejoin="round" stroke-miterlimit="10" stroke-dasharray="8 6" fill="none" fill-rule="evenodd"/><path d="M0 0 70.9902 47.3044" stroke="#D1D1D1" stroke-width="2" stroke-linejoin="round" stroke-miterlimit="10" stroke-dasharray="8 6" fill="none" fill-rule="evenodd" transform="matrix(1 0 0 -1 696 385.304)"/><path d="M605 292 605 475.854" stroke="#D1D1D1" stroke-width="2" stroke-linejoin="round" stroke-miterlimit="10" stroke-dasharray="8 6" fill="none" fill-rule="evenodd"/><path d="M513 386 696.854 386" stroke="#D1D1D1" stroke-width="2" stroke-linejoin="round" stroke-miterlimit="10" stroke-dasharray="8 6" fill="none" fill-rule="evenodd"/><path d="M0 0 70.9902 47.3044" stroke="#D1D1D1" stroke-width="2" stroke-linejoin="round" stroke-miterlimit="10" stroke-dasharray="8 6" fill="none" fill-rule="evenodd" transform="matrix(1 0 0 -1 605 291.304)"/><path d="M551 266 735 266" stroke="#D1D1D1" stroke-width="2" stroke-linejoin="round" stroke-miterlimit="10" stroke-dasharray="8 6" fill="none" fill-rule="evenodd"/><path d="M674 244 674 427.854" stroke="#D1D1D1" stroke-width="2" stroke-linejoin="round" stroke-miterlimit="10" stroke-dasharray="8 6" fill="none" fill-rule="evenodd"/><path d="M737 264 737 447.854" stroke="#D1D1D1" stroke-width="2" stroke-linejoin="round" stroke-miterlimit="10" stroke-dasharray="8 6" fill="none" fill-rule="evenodd"/><path d="M551 266 551 449.854" stroke="#D1D1D1" stroke-width="2" stroke-linejoin="round" stroke-miterlimit="10" stroke-dasharray="8 6" fill="none" fill-rule="evenodd"/><path d="M0 0 70.9902 47.3044" stroke="#D1D1D1" stroke-width="2" stroke-linejoin="round" stroke-miterlimit="10" stroke-dasharray="8 6" fill="none" fill-rule="evenodd" transform="matrix(1 0 0 -1 605 475.304)"/><path d="M551 450 735 450" stroke="#D1D1D1" stroke-width="2" stroke-linejoin="round" stroke-miterlimit="10" stroke-dasharray="8 6" fill="none" fill-rule="evenodd"/></g></svg>