<svg width="1280" height="720" xmlns="http://www.w3.org/2000/svg" xmlns:xlink="http://www.w3.org/1999/xlink" overflow="hidden"><g><rect x="0" y="0" width="1280" height="720" fill="#FFFFFF"/><rect x="522" y="240" width="100" height="101" stroke="#000000" stroke-width="2" stroke-miterlimit="8" fill="none"/><rect x="622" y="240" width="101" height="101" stroke="#000000" stroke-width="2" stroke-miterlimit="8" stroke-opacity="0.290196" fill="none"/><rect x="622" y="341" width="101" height="101" stroke="#000000" stroke-width="2" stroke-miterlimit="8" stroke-opacity="0.290196" fill="none"/><rect x="522" y="341" width="100" height="101" stroke="#000000" stroke-width="2" stroke-miterlimit="8" stroke-opacity="0.290196" fill="none"/><path d="M502 239 755.667 239 755.667 241 502 241ZM754.333 236 762.333 240 754.333 244Z" fill="#156082"/><path d="M523 218 523 466.5 521 466.5 521 218ZM526 465.167 522 473.167 518 465.167Z" fill="#156082"/><path d="M519 240.5C519 239.119 520.119 238 521.5 238 522.881 238 524 239.119 524 240.5 524 241.881 522.881 243 521.5 243 520.119 243 519 241.881 519 240.5Z" stroke="#FF0000" stroke-width="2" stroke-miterlimit="8" fill="#FF0000" fill-rule="evenodd"/><text font-family="Cambria Math,Cambria Math_MSFontService,sans-serif" font-weight="400" font-size="24" transform="translate(766.074 245)">𝑥</text><text font-family="Cambria Math,Cambria Math_MSFontService,sans-serif" font-weight="400" font-size="24" transform="translate(514.37 493)">𝑦</text><path d="M0 0 12 0 6 18Z" stroke="#000000" stroke-width="2" stroke-miterlimit="8" fill-rule="evenodd" transform="matrix(1 0 0 -1 772 207)"/><text font-family="Aptos,Aptos_MSFontService,sans-serif" font-weight="400" font-size="24" transform="translate(769.62 179)">N</text></g></svg>